<svg width="202" height="46" viewBox="0 0 202 46" fill="none" xmlns="http://www.w3.org/2000/svg">
<g filter="url(#filter0_d)">
<rect x="3" y="2" width="196" height="40" rx="2" fill="white"/>
<path d="M32.5328 22.1871C32.5328 21.3677 32.4664 20.7697 32.3225 20.1497H22.9658V23.848H28.458C28.3473 24.7671 27.7493 26.1512 26.4206 27.0813L26.4019 27.2051L29.3603 29.4969L29.5653 29.5174C31.4477 27.7789 32.5328 25.221 32.5328 22.1871Z" fill="#4285F4"/>
<path d="M22.9657 31.9313C25.6563 31.9313 27.9152 31.0454 29.5651 29.5174L26.4204 27.0813C25.5789 27.6682 24.4494 28.0779 22.9657 28.0779C20.3303 28.0779 18.0936 26.3395 17.2963 23.9366L17.1794 23.9466L14.1032 26.3273L14.063 26.4391C15.7018 29.6945 19.068 31.9313 22.9657 31.9313Z" fill="#34A853"/>
<path d="M17.2963 23.9366C17.0859 23.3165 16.9641 22.6521 16.9641 21.9656C16.9641 21.279 17.0859 20.6147 17.2852 19.9946L17.2796 19.8625L14.1649 17.4436L14.063 17.4921C13.3876 18.843 13 20.36 13 21.9656C13 23.5712 13.3876 25.0881 14.063 26.439L17.2963 23.9366Z" fill="#FBBC05"/>
<path d="M22.9657 15.8534C24.837 15.8534 26.0992 16.6617 26.819 17.3372L29.6315 14.5911C27.9042 12.9855 25.6563 12 22.9657 12C19.068 12 15.7018 14.2367 14.063 17.4921L17.2852 19.9947C18.0936 17.5918 20.3303 15.8534 22.9657 15.8534Z" fill="#EB4335"/>
<path d="M59.2139 23.4365C59.2139 22.999 59.0589 22.6618 58.749 22.4248C58.4437 22.1878 57.89 21.9486 57.0879 21.707C56.2858 21.4655 55.6478 21.1966 55.1738 20.9004C54.2669 20.3307 53.8135 19.5879 53.8135 18.6719C53.8135 17.8698 54.1393 17.209 54.791 16.6895C55.4473 16.1699 56.2972 15.9102 57.3408 15.9102C58.0335 15.9102 58.651 16.0378 59.1934 16.293C59.7357 16.5482 60.1618 16.9128 60.4717 17.3867C60.7816 17.8561 60.9365 18.3779 60.9365 18.9521H59.2139C59.2139 18.4326 59.0498 18.027 58.7217 17.7354C58.3981 17.4391 57.9333 17.291 57.3271 17.291C56.762 17.291 56.3223 17.4118 56.0078 17.6533C55.6979 17.8949 55.543 18.2321 55.543 18.665C55.543 19.0296 55.7116 19.335 56.0488 19.5811C56.3861 19.8226 56.9421 20.0596 57.7168 20.292C58.4915 20.5199 59.1136 20.7819 59.583 21.0781C60.0524 21.3698 60.3965 21.707 60.6152 22.0898C60.834 22.4681 60.9434 22.9124 60.9434 23.4229C60.9434 24.2523 60.6243 24.9131 59.9863 25.4053C59.3529 25.8929 58.4915 26.1367 57.4023 26.1367C56.6823 26.1367 56.0192 26.0046 55.4131 25.7402C54.8115 25.4714 54.3421 25.1022 54.0049 24.6328C53.6722 24.1634 53.5059 23.6165 53.5059 22.9922H55.2354C55.2354 23.5573 55.4222 23.9948 55.7959 24.3047C56.1696 24.6146 56.7051 24.7695 57.4023 24.7695C58.0039 24.7695 58.4551 24.6488 58.7559 24.4072C59.0612 24.1611 59.2139 23.8376 59.2139 23.4365Z" fill="#757575"/>
<path d="M64.4674 26H62.8062V18.6035H64.4674V26ZM62.7037 16.6826C62.7037 16.4274 62.7835 16.2155 62.943 16.0469C63.107 15.8783 63.3395 15.7939 63.6402 15.7939C63.941 15.7939 64.1734 15.8783 64.3375 16.0469C64.5016 16.2155 64.5836 16.4274 64.5836 16.6826C64.5836 16.9333 64.5016 17.1429 64.3375 17.3115C64.1734 17.4756 63.941 17.5576 63.6402 17.5576C63.3395 17.5576 63.107 17.4756 62.943 17.3115C62.7835 17.1429 62.7037 16.9333 62.7037 16.6826Z" fill="#757575"/>
<path d="M66.3918 22.2471C66.3918 21.0986 66.6607 20.1826 67.1984 19.499C67.7408 18.8109 68.4585 18.4668 69.3518 18.4668C70.1949 18.4668 70.8579 18.7607 71.341 19.3486L71.4162 18.6035H72.9133V25.7744C72.9133 26.7451 72.6102 27.5107 72.0041 28.0713C71.4025 28.6318 70.5891 28.9121 69.5637 28.9121C69.0214 28.9121 68.4904 28.7982 67.9709 28.5703C67.4559 28.347 67.064 28.0531 66.7951 27.6885L67.5813 26.6904C68.0917 27.2965 68.7206 27.5996 69.468 27.5996C70.0194 27.5996 70.4546 27.4492 70.7736 27.1484C71.0926 26.8522 71.2521 26.4147 71.2521 25.8359V25.3369C70.7736 25.8701 70.1356 26.1367 69.3381 26.1367C68.4722 26.1367 67.7635 25.7926 67.2121 25.1045C66.6652 24.4163 66.3918 23.4639 66.3918 22.2471ZM68.0461 22.3906C68.0461 23.1335 68.1965 23.7191 68.4973 24.1475C68.8026 24.5713 69.2242 24.7832 69.7619 24.7832C70.4318 24.7832 70.9286 24.4961 71.2521 23.9219V20.668C70.9377 20.1074 70.4455 19.8271 69.7756 19.8271C69.2287 19.8271 68.8026 20.0436 68.4973 20.4766C68.1965 20.9095 68.0461 21.5475 68.0461 22.3906Z" fill="#757575"/>
<path d="M76.5672 18.6035L76.615 19.458C77.1619 18.7972 77.8797 18.4668 78.7684 18.4668C80.3087 18.4668 81.0926 19.3486 81.1199 21.1123V26H79.4588V21.208C79.4588 20.7386 79.3563 20.3923 79.1512 20.1689C78.9507 19.9411 78.6202 19.8271 78.16 19.8271C77.49 19.8271 76.991 20.1302 76.6629 20.7363V26H75.0018V18.6035H76.5672Z" fill="#757575"/>
<path d="M88.8721 26H87.2109V18.6035H88.8721V26ZM87.1084 16.6826C87.1084 16.4274 87.1882 16.2155 87.3477 16.0469C87.5117 15.8783 87.7441 15.7939 88.0449 15.7939C88.3457 15.7939 88.5781 15.8783 88.7422 16.0469C88.9062 16.2155 88.9883 16.4274 88.9883 16.6826C88.9883 16.9333 88.9062 17.1429 88.7422 17.3115C88.5781 17.4756 88.3457 17.5576 88.0449 17.5576C87.7441 17.5576 87.5117 17.4756 87.3477 17.3115C87.1882 17.1429 87.1084 16.9333 87.1084 16.6826Z" fill="#757575"/>
<path d="M92.6285 18.6035L92.6764 19.458C93.2232 18.7972 93.941 18.4668 94.8297 18.4668C96.3701 18.4668 97.1539 19.3486 97.1813 21.1123V26H95.5201V21.208C95.5201 20.7386 95.4176 20.3923 95.2125 20.1689C95.012 19.9411 94.6816 19.8271 94.2213 19.8271C93.5514 19.8271 93.0523 20.1302 92.7242 20.7363V26H91.0631V18.6035H92.6285Z" fill="#757575"/>
<path d="M109.664 23.71L110.84 18.6035H112.46L110.443 26H109.076L107.49 20.9209L105.931 26H104.564L102.541 18.6035H104.161L105.357 23.6553L106.875 18.6035H108.126L109.664 23.71Z" fill="#757575"/>
<path d="M115.738 26H114.077V18.6035H115.738V26ZM113.974 16.6826C113.974 16.4274 114.054 16.2155 114.213 16.0469C114.377 15.8783 114.61 15.7939 114.911 15.7939C115.211 15.7939 115.444 15.8783 115.608 16.0469C115.772 16.2155 115.854 16.4274 115.854 16.6826C115.854 16.9333 115.772 17.1429 115.608 17.3115C115.444 17.4756 115.211 17.5576 114.911 17.5576C114.61 17.5576 114.377 17.4756 114.213 17.3115C114.054 17.1429 113.974 16.9333 113.974 16.6826Z" fill="#757575"/>
<path d="M120.034 16.8057V18.6035H121.34V19.834H120.034V23.9629C120.034 24.2454 120.089 24.4505 120.198 24.5781C120.312 24.7012 120.513 24.7627 120.8 24.7627C120.991 24.7627 121.185 24.7399 121.381 24.6943V25.9795C121.003 26.0843 120.638 26.1367 120.287 26.1367C119.011 26.1367 118.373 25.4326 118.373 24.0244V19.834H117.156V18.6035H118.373V16.8057H120.034Z" fill="#757575"/>
<path d="M124.652 19.4102C125.194 18.7812 125.88 18.4668 126.71 18.4668C128.286 18.4668 129.086 19.3669 129.109 21.167V26H127.448V21.2285C127.448 20.7181 127.336 20.3581 127.113 20.1484C126.894 19.9342 126.571 19.8271 126.142 19.8271C125.477 19.8271 124.98 20.1234 124.652 20.7158V26H122.991V15.5H124.652V19.4102Z" fill="#757575"/>
<path d="M142.87 24.708C142.51 25.1774 142.011 25.5329 141.373 25.7744C140.735 26.016 140.01 26.1367 139.199 26.1367C138.365 26.1367 137.627 25.9476 136.984 25.5693C136.342 25.1911 135.845 24.651 135.494 23.9492C135.148 23.2428 134.968 22.4202 134.954 21.4814V20.7021C134.954 19.1982 135.314 18.0247 136.034 17.1816C136.754 16.334 137.759 15.9102 139.049 15.9102C140.156 15.9102 141.036 16.1836 141.687 16.7305C142.339 17.2773 142.731 18.0658 142.863 19.0957H141.168C140.976 17.8971 140.281 17.2979 139.083 17.2979C138.308 17.2979 137.718 17.5781 137.312 18.1387C136.911 18.6947 136.704 19.5127 136.69 20.5928V21.3584C136.69 22.4339 136.916 23.2702 137.367 23.8672C137.823 24.4596 138.454 24.7559 139.261 24.7559C140.145 24.7559 140.774 24.5553 141.147 24.1543V22.2061H139.096V20.8936H142.87V24.708Z" fill="#757575"/>
<path d="M144.699 22.2334C144.699 21.5088 144.842 20.8571 145.129 20.2783C145.416 19.695 145.82 19.2484 146.339 18.9385C146.859 18.624 147.456 18.4668 148.13 18.4668C149.128 18.4668 149.937 18.7881 150.557 19.4307C151.181 20.0732 151.519 20.9255 151.569 21.9873L151.576 22.377C151.576 23.1061 151.434 23.7578 151.152 24.332C150.874 24.9062 150.473 25.3506 149.949 25.665C149.429 25.9795 148.828 26.1367 148.144 26.1367C147.1 26.1367 146.264 25.7904 145.635 25.0977C145.011 24.4004 144.699 23.473 144.699 22.3154V22.2334ZM146.36 22.377C146.36 23.138 146.517 23.735 146.831 24.168C147.146 24.5964 147.583 24.8105 148.144 24.8105C148.704 24.8105 149.14 24.5918 149.45 24.1543C149.764 23.7168 149.921 23.0765 149.921 22.2334C149.921 21.486 149.76 20.8936 149.436 20.4561C149.117 20.0186 148.682 19.7998 148.13 19.7998C147.588 19.7998 147.157 20.0163 146.838 20.4492C146.519 20.8776 146.36 21.5202 146.36 22.377Z" fill="#757575"/>
<path d="M153.069 22.2334C153.069 21.5088 153.213 20.8571 153.5 20.2783C153.787 19.695 154.19 19.2484 154.71 18.9385C155.229 18.624 155.826 18.4668 156.501 18.4668C157.499 18.4668 158.308 18.7881 158.928 19.4307C159.552 20.0732 159.889 20.9255 159.939 21.9873L159.946 22.377C159.946 23.1061 159.805 23.7578 159.522 24.332C159.244 24.9062 158.843 25.3506 158.319 25.665C157.8 25.9795 157.198 26.1367 156.515 26.1367C155.471 26.1367 154.635 25.7904 154.006 25.0977C153.382 24.4004 153.069 23.473 153.069 22.3154V22.2334ZM154.73 22.377C154.73 23.138 154.888 23.735 155.202 24.168C155.517 24.5964 155.954 24.8105 156.515 24.8105C157.075 24.8105 157.51 24.5918 157.82 24.1543C158.135 23.7168 158.292 23.0765 158.292 22.2334C158.292 21.486 158.13 20.8936 157.807 20.4561C157.488 20.0186 157.052 19.7998 156.501 19.7998C155.959 19.7998 155.528 20.0163 155.209 20.4492C154.89 20.8776 154.73 21.5202 154.73 22.377Z" fill="#757575"/>
<path d="M161.461 22.2471C161.461 21.0986 161.729 20.1826 162.267 19.499C162.81 18.8109 163.527 18.4668 164.421 18.4668C165.264 18.4668 165.927 18.7607 166.41 19.3486L166.485 18.6035H167.982V25.7744C167.982 26.7451 167.679 27.5107 167.073 28.0713C166.471 28.6318 165.658 28.9121 164.632 28.9121C164.09 28.9121 163.559 28.7982 163.04 28.5703C162.525 28.347 162.133 28.0531 161.864 27.6885L162.65 26.6904C163.16 27.2965 163.789 27.5996 164.537 27.5996C165.088 27.5996 165.523 27.4492 165.842 27.1484C166.161 26.8522 166.321 26.4147 166.321 25.8359V25.3369C165.842 25.8701 165.204 26.1367 164.407 26.1367C163.541 26.1367 162.832 25.7926 162.281 25.1045C161.734 24.4163 161.461 23.4639 161.461 22.2471ZM163.115 22.3906C163.115 23.1335 163.265 23.7191 163.566 24.1475C163.871 24.5713 164.293 24.7832 164.831 24.7832C165.501 24.7832 165.997 24.4961 166.321 23.9219V20.668C166.006 20.1074 165.514 19.8271 164.844 19.8271C164.297 19.8271 163.871 20.0436 163.566 20.4766C163.265 20.9095 163.115 21.5475 163.115 22.3906Z" fill="#757575"/>
<path d="M171.862 26H170.2V15.5H171.862V26Z" fill="#757575"/>
<path d="M177.334 26.1367C176.281 26.1367 175.427 25.8063 174.77 25.1455C174.119 24.4801 173.793 23.596 173.793 22.4932V22.2881C173.793 21.5498 173.934 20.8913 174.217 20.3125C174.504 19.7292 174.905 19.2757 175.42 18.9521C175.935 18.6286 176.509 18.4668 177.142 18.4668C178.15 18.4668 178.927 18.7881 179.473 19.4307C180.025 20.0732 180.301 20.9824 180.301 22.1582V22.8281H175.468C175.518 23.4388 175.721 23.9219 176.076 24.2773C176.436 24.6328 176.887 24.8105 177.429 24.8105C178.191 24.8105 178.81 24.5029 179.289 23.8877L180.184 24.7422C179.888 25.1842 179.492 25.5283 178.995 25.7744C178.503 26.016 177.949 26.1367 177.334 26.1367ZM177.136 19.7998C176.68 19.7998 176.311 19.9593 176.028 20.2783C175.75 20.5973 175.572 21.0417 175.495 21.6113H178.66V21.4883C178.623 20.9323 178.475 20.513 178.216 20.2305C177.956 19.9434 177.596 19.7998 177.136 19.7998Z" fill="#757575"/>
</g>
<defs>
<filter id="filter0_d" x="0" y="0" width="202" height="46" filterUnits="userSpaceOnUse" color-interpolation-filters="sRGB">
<feFlood flood-opacity="0" result="BackgroundImageFix"/>
<feColorMatrix in="SourceAlpha" type="matrix" values="0 0 0 0 0 0 0 0 0 0 0 0 0 0 0 0 0 0 127 0"/>
<feOffset dy="1"/>
<feGaussianBlur stdDeviation="1.5"/>
<feColorMatrix type="matrix" values="0 0 0 0 0 0 0 0 0 0 0 0 0 0 0 0 0 0 0.35 0"/>
<feBlend mode="normal" in2="BackgroundImageFix" result="effect1_dropShadow"/>
<feBlend mode="normal" in="SourceGraphic" in2="effect1_dropShadow" result="shape"/>
</filter>
</defs>
</svg>
